<svg width="349" height="200" viewBox="0 0 349 200" fill="none" xmlns="http://www.w3.org/2000/svg">
<path opacity="0.7" d="M10.3462 128.625C9.24624 126.925 8.32124 125.15 7.57124 123.3C6.87124 121.45 6.52124 119.725 6.52124 118.125C6.52124 116.925 6.82124 115.5 7.42124 113.85C8.02124 112.2 8.69624 110.5 9.44624 108.75L34.8712 52.65C36.4712 52.25 38.3212 52.15 40.4212 52.35C42.5212 52.55 44.4962 52.95 46.3462 53.55C48.2462 54.15 49.6962 54.925 50.6962 55.875L34.7962 90.75C33.8462 92.9 32.6962 95.475 31.3462 98.475C29.9962 101.425 28.5712 104.35 27.0712 107.25C25.6212 110.1 24.2462 112.475 22.9462 114.375L23.3212 114.975C25.2712 114.825 27.4212 114.7 29.7712 114.6C32.1712 114.5 34.3962 114.425 36.4462 114.375C38.5462 114.325 40.0712 114.3 41.0212 114.3H61.3462C62.6462 114.3 63.8212 114.275 64.8712 114.225C65.9712 114.175 67.1962 114.15 68.5462 114.15H75.7462C75.9462 115.25 76.0462 116.35 76.0462 117.45C76.0962 118.5 76.1212 119.55 76.1212 120.6C76.1212 121.65 76.0462 122.925 75.8962 124.425C75.7462 125.875 75.4712 127.225 75.0712 128.475H68.5462C67.1962 128.475 65.9712 128.475 64.8712 128.475C63.8212 128.425 62.6462 128.4 61.3462 128.4H44.9962C43.5962 128.4 42.1462 128.45 40.6462 128.55C39.1962 128.6 37.7712 128.625 36.3712 128.625H10.3462ZM44.8462 137.025C44.8462 135.625 44.8712 134.175 44.9212 132.675C44.9712 131.175 44.9962 129.75 44.9962 128.4V116.175C44.9962 115.575 44.9712 114.55 44.9212 113.1C44.8712 111.6 44.8462 110.5 44.8462 109.8V99.45C44.8462 95.3 45.8462 92.05 47.8462 89.7C49.8962 87.35 52.6962 86.175 56.2462 86.175H60.6712L61.4962 87V105.75C61.4962 107.1 61.4712 108.525 61.4212 110.025C61.3712 111.525 61.3462 112.95 61.3462 114.3V128.4C61.3462 129.75 61.3712 131.175 61.4212 132.675C61.4712 134.175 61.4962 135.625 61.4962 137.025V148.5C60.0962 148.75 58.6712 148.9 57.2212 148.95C55.8212 149.05 54.4212 149.1 53.0212 149.1C51.7212 149.1 50.3712 149.05 48.9712 148.95C47.5712 148.9 46.1962 148.75 44.8462 148.5V137.025Z" fill="#0a2640"/>
<path d="M107.276 92.9347C105.555 93.2565 103.8 93.3571 102.03 93.2343C100.907 93.156 99.7499 93.0035 98.666 92.6807C98.1557 92.5399 97.5598 92.3155 97.2041 91.9079C99.7764 89.7104 103.682 91.1564 106.402 92.5028C106.69 92.6468 106.978 92.7908 107.276 92.9347Z" fill="#C2CAC2"/>
<path d="M254.463 72.8689C254.512 72.5608 254.444 72.2867 254.314 72.0771C254.289 71.8548 254.212 71.6335 254.04 71.425C250.774 67.5243 248.084 63.1493 246.088 58.479C245.079 56.1227 244.281 53.6785 243.619 51.2004C243.003 48.9012 242.439 46.5597 241.327 44.4373C237.307 36.7682 226.37 36.6443 221.269 43.2094C219.077 46.0156 218.025 49.313 217.439 52.73C216.228 53.2032 214.864 53.2339 213.608 52.8602C212.396 52.4971 211.272 51.645 210.58 50.6394C210.45 50.451 210.278 50.3049 210.087 50.2128C208.295 43.6011 207.273 36.7354 205.618 30.111C203.245 20.6814 199.215 10.8422 191.124 4.91754C182.755 -1.21568 171.532 -1.22944 162.276 2.83432C152.599 7.08439 145.637 15.9 141.511 25.4047C137.518 34.5897 136.034 44.4776 135.322 54.4078C135.26 54.5041 135.209 54.6111 135.168 54.7275C135.137 54.8122 135.117 54.8873 135.086 54.9614C135.076 54.9826 135.014 55.1424 135.014 55.1424C134.933 55.334 134.84 55.5256 134.748 55.7183C134.573 56.0591 134.388 56.401 134.18 56.7218C134.066 56.8933 133.953 57.0743 133.828 57.2458C133.807 57.2775 133.807 57.2669 133.797 57.2881C133.786 57.2987 133.786 57.2987 133.756 57.3421C133.693 57.4173 133.631 57.503 133.558 57.5887C133.308 57.8999 133.037 58.1889 132.745 58.4684C132.609 58.6081 132.474 58.7373 132.327 58.8664C132.243 58.931 132.17 59.0061 132.086 59.0707C132.076 59.0813 132.003 59.1353 131.962 59.1787C131.658 59.4158 131.333 59.6328 131.008 59.8382C130.662 60.0446 130.315 60.2404 129.947 60.4151C129.873 60.4479 129.8 60.4807 129.715 60.5135C129.705 60.5241 129.568 60.5791 129.536 60.5897C129.347 60.667 129.147 60.7326 128.947 60.7993C128.883 60.8215 128.821 60.8438 128.757 60.8766C127.819 59.0273 127.111 56.9631 125.934 55.3605C123.32 51.8207 119.101 51.4809 115.105 52.5987C111.046 53.7282 107.367 56.238 104.822 59.5788C101.79 63.5515 100.855 68.3605 99.9521 73.1483C98.7835 79.2953 97.04 85.3026 94.617 91.0759C94.4127 91.5554 94.5567 92.0085 94.8467 92.3218C94.8795 92.3959 94.9335 92.4584 94.9875 92.5208C95.9942 94.6972 98.8904 95.1206 101.042 95.3641C104.022 95.7007 107.045 95.4234 109.924 94.5871C110.06 94.5426 110.187 94.4876 110.281 94.423L110.292 94.4124C110.334 94.4008 110.377 94.3796 110.418 94.3468C110.843 94.5098 111.27 94.6622 111.705 94.7935H111.716C111.738 94.8888 111.782 94.9724 111.836 95.0666C113.571 97.8675 116.627 99.0616 119.627 100.023C119.977 105.057 119.957 110.096 119.565 115.12C119.388 115.344 119.329 115.642 119.451 116C120.215 118.319 121.453 120.427 123.173 122.181C124.496 123.528 126.076 124.489 127.689 125.428C129.064 130.362 130.102 135.375 130.717 140.458C130.645 140.607 130.606 140.799 130.619 141.01C130.815 144.236 133.055 146.765 135.871 148.174C137.876 149.171 140.051 149.51 142.244 149.657C142.256 149.72 142.236 149.784 142.258 149.858C143.204 153.708 143.697 157.639 143.744 161.608C143.749 161.957 143.923 162.241 144.18 162.438C145.014 165.189 147.657 166.981 150.326 167.852C153.826 168.997 158.12 168.721 160.965 171.379C161.523 171.911 161.88 172.467 162.112 173.067C162.115 173.278 162.17 173.457 162.268 173.604C162.538 174.648 162.501 175.782 162.582 176.998C162.702 178.68 163.224 180.271 164.134 181.686C165.011 183.06 166.129 184.187 167.383 185.164C166.995 189.743 166.618 194.333 166.231 198.912C166.141 199.993 167.895 200.444 168.325 199.432C169.295 197.088 171.703 195.92 173.381 194.149C174.633 192.828 175.526 190.984 175.341 189.197C176.243 187.172 177.454 185.344 179.019 183.764C180.699 182.098 182.652 181.001 184.699 179.858C186.348 178.934 188.026 177.882 189.071 176.258C190.479 174.067 189.956 171.661 189.677 169.241C189.605 168.628 189.595 168.046 189.641 167.495C189.671 167.399 189.69 167.292 189.689 167.187L189.688 167.091C190.312 162.742 194.53 160.17 198.561 158.554C202.939 156.796 208.138 155.385 210.378 150.789C211.312 148.88 211.683 146.672 212.149 144.527C212.316 144.356 212.407 144.121 212.424 143.835C212.431 143.634 212.44 143.443 212.447 143.242C212.917 141.403 213.559 139.669 214.84 138.252C215.051 138.196 215.25 138.066 215.417 137.863C219.7 132.549 216.57 125.608 217.032 119.556C217.289 116.217 219.013 113.916 221.75 112.129C224.088 110.581 226.631 109.337 228.559 107.255C228.57 107.234 228.59 107.222 228.601 107.201C228.83 107.018 228.985 106.73 229.001 106.358C229.132 103.064 229.263 99.7697 229.405 96.4745C229.52 96.43 229.637 96.3866 229.752 96.3422C234.019 94.966 239.374 95.5229 242.385 91.5501C242.562 91.3151 242.663 91.0484 242.67 90.7837C242.942 90.5255 243.073 90.1105 242.993 89.6881C242.511 87.2069 242.03 84.7373 241.549 82.2561C241.896 82.1238 242.243 81.9809 242.581 81.8708C247.257 80.3009 253.606 78.6623 254.463 72.8689ZM225.42 100.548C225.593 99.413 226.257 98.4815 227.125 97.7701C227.039 99.8459 226.953 101.923 226.868 104.009C225.933 103.049 225.217 101.916 225.42 100.548ZM235.822 87.3625C235.811 87.3413 235.801 87.3308 235.789 87.3096V87.299C235.809 87.2461 235.819 87.1931 235.819 87.1286C235.828 87.0333 235.826 86.938 235.836 86.8428C235.836 86.8322 235.836 86.8322 235.836 86.8216C235.957 86.4702 236.217 86.0753 236.319 85.9144C237.085 84.7172 238.216 83.864 239.465 83.1897C239.82 84.9628 240.164 86.7475 240.507 88.5206C239.455 88.2718 238.404 88.0326 237.352 87.7838C237.002 87.7044 236.017 87.6875 235.822 87.3625ZM145.787 157.907C145.567 155.158 145.135 152.434 144.502 149.743C145.211 149.764 145.911 149.774 146.61 149.786C148.135 149.827 150.028 149.714 151.395 150.551C152.923 151.503 151.501 152.71 150.516 153.392C148.672 154.667 147.085 156.163 145.787 157.907ZM127.431 105.627C127.475 105.795 127.541 105.932 127.628 106.047C127.082 107.791 125.258 109.025 123.866 110.051C123.217 110.537 122.589 111.055 122.004 111.593C122.152 107.991 122.131 104.391 121.907 100.785C124.344 101.659 126.787 102.968 127.431 105.627ZM102.03 93.2343C100.907 93.1559 99.7499 93.0035 98.666 92.6806C98.1557 92.5399 97.5598 92.3155 97.2041 91.9079C99.7764 89.7104 103.682 91.1563 106.402 92.5028C106.69 92.6468 106.978 92.7907 107.276 92.9347C105.556 93.2565 103.8 93.356 102.03 93.2343ZM130.437 127.136C132.075 128.34 133.346 129.846 133.517 132.067C133.649 133.854 133.177 135.544 132.491 137.175C131.975 133.794 131.28 130.449 130.437 127.136ZM170.78 193.543C170.111 194.124 169.42 194.696 168.762 195.288C168.994 192.383 169.237 189.501 169.491 186.607C170.559 187.258 171.67 187.845 172.778 188.41C172.778 188.421 172.79 188.442 172.8 188.453C172.909 188.631 172.986 188.82 173.042 189C172.982 189.287 173.039 189.55 173.17 189.781C173.149 191.254 171.845 192.638 170.78 193.543Z" fill="#FFFDFE"/>
<path d="M179.544 2.11662C186.1 4.36603 190.732 10.0684 193.483 16.2302C196.866 23.8073 197.507 32.2863 198.651 40.4022C199.694 47.7908 201.169 55.3467 205.04 61.8377C206.906 64.9647 209.322 67.8567 212.385 69.8689C214.874 71.5033 218.709 72.89 220.36 69.4275C221.144 67.7815 221.239 65.7808 221.427 63.9951C221.666 61.7149 221.772 59.4243 221.896 57.1367C222.143 52.5299 222.503 47.9221 224.129 43.563C224.546 42.4452 222.682 41.719 222.173 42.8008C220.422 46.5153 218.93 50.3409 217.683 54.2522C215.576 54.2395 213.321 54.0394 211.612 52.7258C209.954 51.4523 209.204 49.3585 208.62 47.432C207.096 42.3901 205.776 37.2805 204.345 32.2111C202.998 27.4434 201.551 22.6683 199.289 18.2425C197.151 14.0581 194.294 10.2653 190.929 6.99017C190.61 6.68001 190.243 6.64932 189.92 6.75941C187.236 3.77642 183.937 1.39469 180.051 0.0619748C178.764 -0.380498 178.262 1.67626 179.544 2.11662Z" fill="#E5E5E5"/>
<path d="M249.911 68.6665C248.581 67.1072 247.805 65.0991 247.021 63.2308C245.174 58.823 243.481 54.3517 241.922 49.8338C241.727 49.2654 241.221 49.0749 240.753 49.132C240.203 45.8505 239.366 42.5574 237.012 40.0814C236.072 39.0927 234.599 40.6139 235.537 41.6004C238.216 44.4172 238.666 48.8441 239.129 52.5257C239.672 56.8531 239.823 61.2302 239.572 65.584C239.47 67.3613 239.419 69.2264 238.867 70.9349C238.645 71.624 238.319 72.3682 237.758 72.8562C237.229 73.3166 236.587 73.3399 235.961 73.5792C235.864 70.2532 235.645 66.9304 235.281 63.6225C234.915 60.2933 234.484 57.0065 233.06 53.941C232.402 52.5225 230.584 53.2371 230.149 54.3655C228.833 57.775 228.367 61.3868 227.88 64.9869C227.78 65.7226 227.681 66.4583 227.581 67.194C227.386 67.4332 227.254 67.7413 227.227 68.1171C226.922 72.3078 226.134 76.4542 224.887 80.4671C224.261 82.4837 223.52 84.461 222.656 86.3876C221.981 87.8918 221.273 89.4796 220.145 90.7054C219.808 91.0717 219.38 91.3437 218.934 91.5956C219.172 86.7052 219.283 81.8009 218.767 76.9644C218.553 74.9553 215.644 74.9362 215.591 77.011C215.341 86.9645 214.741 96.9043 213.816 106.816C213.778 106.357 213.741 105.899 213.699 105.44C213.387 101.95 213.075 98.4593 212.763 94.9692C212.646 93.663 211.437 93.2142 210.544 93.5921C209.708 93.609 208.817 94.2875 208.832 95.2095C208.954 102.436 209.076 109.663 209.196 116.891C209.232 119.046 209.268 121.202 209.305 123.357C209.004 124.832 208.607 126.292 208.066 127.729C207.262 129.866 206.023 132.233 203.878 133.279C201.959 134.215 199.747 133.764 197.959 132.747C193.553 130.24 192.425 124.721 191.513 120.147C190.18 113.453 189.107 106.703 188.869 99.8724C188.835 98.8933 188.087 98.3979 187.326 98.3682C186.645 97.1403 184.338 97.423 184.345 99.1706C184.391 111.667 184.438 124.163 184.485 136.659C184.518 145.777 184.83 155.042 184.243 164.196C183.582 164.367 182.87 164.37 182.271 164.184C180.62 163.673 179.427 162.162 178.768 160.622C177.832 158.436 177.798 155.956 177.715 153.62C177.627 151.161 177.546 148.702 177.461 146.243C177.11 136.056 176.758 125.867 176.407 115.68C176.38 114.902 175.902 114.427 175.325 114.251C174.55 113.383 172.599 113.764 172.461 115.337C171.084 130.992 170.223 146.688 169.865 162.398C168.671 161.187 168.496 157.859 168.33 156.776C167.857 153.679 167.459 150.572 167.125 147.457C166.467 141.3 166.079 135.117 165.941 128.926C165.932 128.532 165.805 128.216 165.609 127.977C165.609 127.974 165.609 127.969 165.609 127.966C165.592 126.224 162.713 125.775 162.479 127.61L161.001 139.153C159.438 137.523 159.427 134.339 159.241 132.313C158.916 128.754 158.623 125.193 158.361 121.629C157.829 114.414 157.429 107.19 157.152 99.9613C157.073 97.9194 153.898 97.9607 153.976 100.008C154.128 103.945 154.316 107.88 154.541 111.814C153.975 111.991 153.527 112.477 153.557 113.286C153.777 119.236 153.547 125.187 153.128 131.123C152.903 134.313 152.723 137.541 152.408 140.747C151.567 140.466 150.563 140.366 149.822 140.045C146.01 138.391 143.268 134.753 141.889 130.92C140.147 126.083 140.076 120.886 139.905 115.808C139.723 110.448 139.406 105.095 139.009 99.7475C138.788 96.755 138.555 93.7614 138.282 90.7731C138.029 87.9966 137.668 85.2285 136.64 82.6192C136.427 82.0772 135.929 81.8877 135.469 81.9322C135.029 81.4103 134.136 81.5045 133.735 82.11C133.256 82.8319 132.549 83.9476 131.661 84.225C130.612 84.5531 129.867 83.7169 129.298 82.96C128.063 81.314 127.245 79.3419 126.501 77.4397C124.861 73.2468 123.291 69.0242 121.688 64.8165C121.495 64.3095 121.052 64.1052 120.62 64.1136C120.002 63.8448 119.157 64.1899 119.099 64.8885C118.688 65.0875 118.384 65.5035 118.523 66.073C121.218 77.0025 123.696 87.9828 125.975 99.0065C124.289 97.7479 122.726 96.3443 121.671 94.4791C120.326 92.1006 119.797 89.3568 119.297 86.6999C118.105 80.3623 116.942 74.0185 115.765 67.6778C115.631 66.9601 114.991 66.8034 114.458 67.0056C114.009 66.579 113.177 66.4911 112.746 67.1813C111.337 69.4403 110.293 71.9289 109.747 74.5393C109.225 77.0311 109.305 80.0755 107.423 82.0253C105.62 83.8937 102.983 84.0948 100.654 84.8707C98.5517 85.5704 96.5563 87.191 96.7807 89.6215C96.8284 90.138 97.1099 90.4619 97.5852 90.6334C100.449 91.6666 103.312 92.7018 106.176 93.7329C108.659 94.6263 111.133 95.4371 113.77 95.6245C117.566 98.6985 122.096 100.46 126.648 102.112C126.658 102.145 126.68 102.163 126.693 102.193C126.75 102.895 126.812 103.596 126.865 104.299C126.346 106.182 125.632 107.996 124.678 109.714C124.069 110.809 123.383 111.864 122.609 112.849C122.134 113.455 121.535 114.026 121.29 114.761C120.758 115.017 120.406 115.678 120.794 116.243C123.503 120.193 126.875 123.551 130.827 126.257C130.972 126.356 131.117 126.398 131.26 126.411C131.311 126.566 131.368 126.715 131.412 126.874C131.504 127.203 131.733 127.406 132.002 127.516C133.363 133.52 130.392 140.539 134.847 145.734C138.913 150.476 145.568 148.306 150.805 150.195C149.936 153.103 148.549 155.77 146.139 157.827C145.759 158.152 145.466 158.497 145.227 158.852C144.688 159.117 144.292 159.673 144.321 160.296C144.464 163.306 147.033 165.457 149.649 166.516C151.77 167.375 154.057 167.686 156.302 167.388C159.242 169.087 161.64 171.665 162.956 174.877C163.215 175.511 163.775 175.862 164.35 175.945C164.673 177.941 165.266 179.889 166.302 181.747C167.558 184 169.455 185.997 171.839 187.053C172.893 187.52 174.201 187.856 175.25 187.168C176.294 186.483 176.363 185.43 176.241 184.36L180.281 181.174C180.869 180.711 181.47 180.254 182.069 179.795C183.251 179.312 184.297 178.696 185.068 177.701C186.424 177.038 187.476 175.888 188.087 174.391C189.14 171.806 188.522 169.006 187.858 166.406C187.804 166.196 187.713 166.018 187.596 165.869C187.936 165.566 188.243 165.219 188.515 164.835C188.607 164.768 188.695 164.69 188.779 164.594C191.999 160.861 196.064 158.044 200.723 156.414C203.089 155.586 205.424 154.759 207.182 152.882C208.771 151.187 209.768 149.049 210.492 146.865C211.279 144.493 211.75 142.04 212.043 139.558C212.304 139.265 212.582 138.983 212.823 138.678C214.702 136.302 215.628 133.617 215.719 130.591C215.815 127.353 215.067 124.123 215.537 120.892C215.852 118.73 216.502 116.643 217.055 114.533C217.068 114.525 217.083 114.523 217.094 114.514L225.676 108.247C226.479 107.66 226.795 106.498 225.977 105.738C223.403 103.347 224.177 100.099 224.686 96.9911C224.723 96.7645 224.767 96.5401 224.805 96.3136C225.035 96.3633 225.285 96.3686 225.55 96.2977C230.223 95.0412 234.84 93.59 239.391 91.945C240.52 91.5374 240.959 90.1772 240.072 89.2753C239.145 88.3332 237.902 88.1691 236.897 87.3996C236.138 86.8174 235.948 85.8223 235.892 84.8845C236.216 84.8538 236.54 84.6886 236.752 84.3795C238.897 81.2695 243.002 80.5084 246.255 79.0783C248.841 77.9414 252.851 75.5322 252.762 72.2105C252.716 70.4607 250.915 69.8425 249.911 68.6665Z" fill="#E5E5E5"/>
<path d="M173.169 189.781C173.148 191.254 171.846 192.638 170.779 193.543C170.11 194.124 169.419 194.696 168.761 195.288C168.993 192.383 169.236 189.501 169.49 186.607C170.558 187.258 171.669 187.845 172.777 188.41C172.777 188.421 172.789 188.442 172.799 188.453C172.908 188.631 172.985 188.82 173.041 189C172.981 189.287 173.039 189.55 173.169 189.781Z" fill="#C2CAC2"/>
<path d="M127.627 106.047C127.081 107.791 125.257 109.025 123.865 110.051C123.216 110.537 122.588 111.055 122.003 111.593C122.151 107.992 122.13 104.391 121.906 100.785C124.343 101.659 126.787 102.968 127.43 105.626C127.476 105.795 127.541 105.932 127.627 106.047Z" fill="#C2CAC2"/>
<path d="M240.508 88.5206C239.456 88.2718 238.405 88.0326 237.353 87.7838C237.002 87.7044 236.017 87.6875 235.822 87.3615C235.812 87.3403 235.801 87.3297 235.789 87.3085V87.2979C235.809 87.245 235.819 87.1921 235.819 87.1275C235.828 87.0322 235.826 86.937 235.836 86.8417C235.836 86.8311 235.836 86.8311 235.836 86.8205C235.958 86.4691 236.217 86.0743 236.32 85.9134C237.085 84.7161 238.217 83.863 239.466 83.1887C239.82 84.9638 240.164 86.7475 240.508 88.5206Z" fill="#C2CAC2"/>
<path d="M227.125 97.7701C227.039 99.846 226.953 101.923 226.868 104.009C225.933 103.049 225.217 101.916 225.42 100.548C225.593 99.413 226.257 98.4815 227.125 97.7701Z" fill="#C2CAC2"/>
<path d="M133.517 132.067C133.649 133.854 133.177 135.544 132.491 137.175C131.975 133.795 131.28 130.449 130.437 127.137C132.075 128.34 133.346 129.846 133.517 132.067Z" fill="#C2CAC2"/>
<path d="M150.516 153.392C148.672 154.668 147.084 156.163 145.787 157.907C145.567 155.158 145.135 152.434 144.502 149.743C145.211 149.764 145.911 149.774 146.61 149.786C148.135 149.827 150.028 149.714 151.395 150.551C152.923 151.503 151.501 152.71 150.516 153.392Z" fill="#C2CAC2"/>
<path d="M213.322 64.2025C207.119 53.5589 206.269 41.1537 203.165 29.4907C200.778 20.5269 196.698 10.964 188.534 5.82367C179.867 0.382733 168.492 1.46139 159.918 6.54242C151.218 11.6997 145.348 20.7217 142.036 30.1078C138.083 41.2924 137.445 53.2752 136.983 65.0229C136.93 66.453 134.697 66.4858 134.76 65.0557C134.838 63.1281 134.915 61.1994 135.024 59.2612C135.095 57.6406 135.199 56.0295 135.322 54.4078C136.034 44.4776 137.518 34.5886 141.511 25.4047C145.637 15.9 152.6 7.0844 162.276 2.83433C171.532 -1.23049 182.755 -1.21568 191.124 4.91755C199.214 10.8433 203.245 20.6825 205.618 30.111C207.273 36.7354 208.296 43.6011 210.087 50.2128C210.456 51.5624 210.857 52.9015 211.3 54.2279C212.319 57.2722 213.59 60.2393 215.242 63.0731C215.959 64.3116 214.05 65.441 213.322 64.2025Z" fill="#0a2640"/>
<path d="M219.557 53.4499C219.557 53.4499 219.547 53.4605 219.557 53.471C219.559 53.6087 219.54 53.7568 219.479 53.8849C219.408 54.1295 219.252 54.3327 219.022 54.4523C218.401 54.7582 217.759 54.9795 217.094 55.1266C215.775 55.4315 214.399 55.4103 213.08 55.0165C212.452 54.8249 211.856 54.5688 211.301 54.2279C210.264 53.6288 209.364 52.7851 208.66 51.7689C208.313 51.2767 208.568 50.5315 209.05 50.2488C209.386 50.0424 209.767 50.0583 210.088 50.2118C210.279 50.3039 210.451 50.4499 210.581 50.6384C211.273 51.644 212.397 52.4961 213.609 52.8592C214.864 53.2329 216.229 53.2022 217.44 52.729C217.598 52.6739 217.745 52.6083 217.892 52.5321C218.428 52.2706 219.086 52.3765 219.412 52.9227C219.51 53.0698 219.555 53.2699 219.557 53.4499Z" fill="#0a2640"/>
<path d="M254.314 72.0771C254.391 73.0182 253.239 73.9031 252.496 73.0139C252.41 72.9091 252.313 72.7948 252.226 72.69C249.09 68.9036 246.456 64.7509 244.452 60.2489C242.656 56.2105 241.757 51.9785 240.351 47.8067C239.035 43.9409 236.357 41.1326 232.169 40.6859C228.214 40.2678 224.589 42.1107 222.414 45.4038C220.799 47.8417 220.003 50.6055 219.558 53.4499C219.558 53.4499 219.548 53.4604 219.558 53.471C219.529 53.6086 219.51 53.7473 219.48 53.8849C219.221 55.6675 219.078 57.4692 218.935 59.239C218.829 60.6596 216.606 60.703 216.712 59.2719C216.819 57.9042 216.936 56.5165 217.095 55.1266C217.189 54.321 217.305 53.525 217.441 52.729C218.026 49.3109 219.078 46.0146 221.271 43.2084C226.372 36.6433 237.31 36.7682 241.329 44.4363C242.441 46.5587 243.004 48.9002 243.621 51.1994C244.283 53.6774 245.081 56.1216 246.09 58.478C248.085 63.1493 250.776 67.5243 254.042 71.424C254.211 71.6336 254.288 71.8548 254.314 72.0771Z" fill="#0a2640"/>
<path d="M254.463 72.8689C254.512 72.5608 254.444 72.2867 254.314 72.0771C253.815 71.3118 252.47 71.226 252.306 72.329C252.287 72.456 252.267 72.5735 252.226 72.69C251.663 75.3872 249.274 77.1062 246.822 78.1055C243.971 79.2805 240.887 79.8235 238.179 81.3563C237.475 81.7586 236.701 82.2889 235.98 82.9134C234.757 83.99 233.708 85.3608 233.603 86.8766C233.596 87.0672 233.598 87.2577 233.612 87.4588C233.612 87.4694 233.612 87.48 233.612 87.48L233.613 87.5223C233.774 89.1292 235.115 89.5537 236.474 89.8723C237.706 90.1507 238.938 90.4397 240.16 90.7181C240.66 90.8377 241.158 90.9468 241.658 91.0664C242.073 91.1659 242.431 91.0335 242.67 90.7869C242.942 90.5286 243.073 90.1137 242.993 89.6913C242.511 87.2101 242.03 84.7405 241.549 82.2592C241.896 82.1269 242.243 81.984 242.581 81.8739C247.258 80.3009 253.606 78.6623 254.463 72.8689ZM237.353 87.7838C237.002 87.7044 236.017 87.6875 235.822 87.3615C235.811 87.3403 235.801 87.3297 235.789 87.3085V87.2979C235.745 87.1826 235.774 87.0227 235.836 86.8417C235.836 86.8311 235.836 86.8311 235.836 86.8205C235.958 86.4691 236.217 86.0743 236.32 85.9134C237.085 84.7161 238.216 83.863 239.466 83.1887C239.82 84.9617 240.164 86.7464 240.507 88.5195C239.456 88.2718 238.405 88.0336 237.353 87.7838Z" fill="#0a2640"/>
<path d="M234.325 58.0715C234.283 57.4914 233.82 56.9399 233.197 56.9759C232.624 57.0087 232.057 57.4839 232.101 58.1043C232.237 59.9779 232.372 61.8526 232.508 63.7262C232.549 64.3063 233.012 64.8578 233.636 64.8218C234.209 64.789 234.776 64.3137 234.732 63.6934C234.596 61.8187 234.461 59.9451 234.325 58.0715Z" fill="#0a2640"/>
<path d="M235.979 82.9135C235.955 84.2155 235.911 85.5185 235.835 86.8216C235.835 86.8322 235.835 86.8322 235.835 86.8428C235.825 86.938 235.827 87.0333 235.818 87.1286C235.819 87.1921 235.809 87.245 235.788 87.299V87.3096C235.562 88.4454 233.837 88.5237 233.61 87.479C233.61 87.479 233.61 87.4684 233.61 87.4578C233.587 87.3731 233.575 87.2683 233.584 87.1614C233.594 87.0661 233.592 86.9709 233.601 86.8756C233.973 80.4544 233.75 74.0322 232.958 67.6598C232.778 66.2329 235.001 66.2212 235.181 67.627C235.817 72.6995 236.084 77.8091 235.979 82.9135Z" fill="#0a2640"/>
<path d="M242.361 89.9761C241.974 89.6003 241.158 89.5283 240.794 89.9994C240.597 90.2566 240.388 90.5033 240.159 90.7181C236.695 94.168 230.576 92.7336 226.582 95.3969H226.571C224.799 96.5772 223.314 98.4942 223.176 100.677V100.688C223.157 100.857 223.16 101.016 223.163 101.185C223.237 103.365 224.649 105.038 226.225 106.423C226.515 106.683 226.815 106.933 227.114 107.172C227.585 107.558 228.199 107.527 228.597 107.203C228.827 107.02 228.982 106.732 228.997 106.36C229.129 103.066 229.26 99.7719 229.402 96.4766C229.517 96.4322 229.634 96.3888 229.749 96.3443C234.016 94.9682 239.371 95.525 242.382 91.5523C242.559 91.3173 242.66 91.0505 242.666 90.7859C242.696 90.5001 242.597 90.2153 242.361 89.9761ZM225.42 100.548C225.593 99.4131 226.257 98.4815 227.125 97.7702C227.039 99.846 226.953 101.923 226.868 104.009C225.933 103.049 225.217 101.917 225.42 100.548Z" fill="#0a2640"/>
<path d="M228.647 69.9124C227.492 80.0903 225.662 90.1772 223.166 100.112C222.818 101.499 224.976 102.036 225.325 100.644C227.822 90.7097 229.652 80.6228 230.807 70.4438C230.966 69.0433 228.809 68.4908 228.647 69.9124Z" fill="#0a2640"/>
<path d="M228.598 107.203C228.588 107.224 228.567 107.235 228.557 107.257C226.629 109.339 224.086 110.584 221.747 112.131C219.011 113.918 217.287 116.221 217.03 119.558C216.568 125.61 219.698 132.551 215.415 137.865C215.249 138.068 215.05 138.198 214.838 138.254C213.922 138.533 212.807 137.585 213.534 136.686C213.67 136.514 213.794 136.343 213.918 136.172C217.526 130.952 214.011 123.785 215.025 117.905C215.044 117.746 215.073 117.597 215.103 117.438C215.469 115.739 216.242 114.298 217.304 113.065C218.084 112.122 219.035 111.304 220.094 110.579C222.138 109.172 224.387 108.08 226.226 106.423C226.509 106.175 226.79 105.906 227.051 105.616C228.009 104.574 229.472 106.152 228.598 107.203Z" fill="#0a2640"/>
<path d="M216.095 85.7916C215.702 96.3231 215.31 106.855 214.918 117.386C214.865 118.819 217.088 118.781 217.142 117.353C217.534 106.822 217.926 96.2903 218.319 85.7588C218.372 84.3255 216.148 84.3637 216.095 85.7916Z" fill="#0a2640"/>
<path d="M217.411 75.1702C216.799 75.2051 216.318 75.6772 216.315 76.2986L216.297 79.4774C216.294 80.0596 216.834 80.6069 217.426 80.573C218.037 80.5381 218.518 80.066 218.521 79.4446L218.539 76.2658C218.542 75.6825 218.001 75.1363 217.411 75.1702Z" fill="#0a2640"/>
<path d="M137.326 55.2568C136.809 56.7356 136.023 58.0926 135.025 59.2613C133.683 60.8375 131.943 62.0696 129.953 62.7979C129.817 62.8529 129.679 62.8974 129.543 62.9419C128.953 63.1409 128.354 62.727 128.176 62.168C128.01 61.6621 128.309 61.1286 128.76 60.8787C128.824 60.8459 128.886 60.8237 128.95 60.8015C129.15 60.7348 129.35 60.6681 129.539 60.5919C129.571 60.5813 129.708 60.5262 129.718 60.5157C129.803 60.4828 129.876 60.45 129.95 60.4172C130.319 60.2426 130.665 60.0467 131.011 59.8403C131.336 59.6339 131.661 59.418 131.965 59.1808C132.006 59.1385 132.08 59.0834 132.09 59.0729C132.173 59.0083 132.246 58.9331 132.33 58.8686C132.476 58.7394 132.612 58.6103 132.748 58.4705C133.04 58.1911 133.311 57.901 133.561 57.5909C133.634 57.5051 133.696 57.4194 133.759 57.3443C133.79 57.3019 133.79 57.3019 133.8 57.2903C133.811 57.2691 133.811 57.2797 133.831 57.2479C133.956 57.0764 134.069 56.8954 134.183 56.724C134.391 56.4032 134.576 56.0613 134.751 55.7204C134.843 55.5288 134.936 55.3362 135.017 55.1446C135.017 55.1446 135.079 54.9847 135.089 54.9636C135.12 54.8895 135.14 54.8143 135.171 54.7296C135.211 54.6121 135.263 54.5063 135.326 54.41C135.585 54.0247 136.005 53.8182 136.514 53.9156C137.065 54.0225 137.519 54.7148 137.326 55.2568Z" fill="#0a2640"/>
<path d="M130.726 66.4605C127.318 64.319 126.529 60.3717 124.491 57.1728C121.998 53.2709 117.233 53.8711 113.468 55.5257C109.775 57.1579 106.674 60.0509 104.875 63.6669C102.685 68.061 102.338 73.179 101.232 77.8959C100.346 81.6781 99.1931 85.4 97.8075 89.0308C97.5227 89.8078 97.2157 90.5742 96.8992 91.3416C96.7976 91.6073 96.6854 91.8846 96.5721 92.1514C96.245 92.9294 95.4395 92.867 94.9462 92.4298C94.9144 92.398 94.8711 92.3673 94.8499 92.325C94.5598 92.0117 94.4148 91.5586 94.6202 91.0791C97.0442 85.3058 98.7866 79.2985 99.9553 73.1515C100.858 68.3637 101.793 63.5537 104.826 59.582C107.37 56.2412 111.049 53.7304 115.108 52.6019C119.104 51.4841 123.323 51.8239 125.937 55.3637C127.114 56.9663 127.823 59.0305 128.76 60.8798C129.12 61.5625 129.5 62.2136 129.953 62.8C130.46 63.47 131.052 64.0544 131.789 64.5191C133.006 65.2728 131.934 67.2258 130.726 66.4605Z" fill="#0a2640"/>
<path d="M117.69 94.8549C116.753 95.1862 115.823 95.3164 114.902 95.309C113.822 95.3143 112.761 95.1185 111.719 94.7946H111.708C111.272 94.6633 110.847 94.5109 110.421 94.3479C110.411 94.3479 110.4 94.3373 110.389 94.3373C109.868 94.133 109.356 93.9181 108.844 93.6725C108.322 93.4365 107.799 93.1898 107.288 92.9336C107.288 92.9336 107.288 92.9336 107.277 92.9336C106.979 92.7897 106.691 92.6457 106.403 92.5018C103.683 91.1553 99.7764 89.7093 97.2052 91.9069C96.9744 92.09 96.7564 92.3049 96.5478 92.5621C96.0588 93.1623 95.3792 92.9813 94.9907 92.5219C94.9367 92.4594 94.8827 92.397 94.8499 92.3229C94.6329 91.945 94.5937 91.4369 94.9473 91.0081C95.738 90.0438 96.7235 89.4045 97.8085 89.0287C99.9881 88.2559 102.576 88.5354 104.737 89.3388C108.335 90.6832 112.095 93.6662 116.085 92.9294C114.54 85.7853 113.554 78.5268 113.182 71.2271C113.108 69.7885 115.331 69.7663 115.405 71.1943C115.781 78.6941 116.801 86.1537 118.465 93.4873C118.611 94.1012 118.28 94.6453 117.69 94.8549Z" fill="#0a2640"/>
<path d="M110.388 94.3383C110.357 94.3606 110.326 94.3923 110.294 94.4135L110.284 94.4241C110.189 94.4886 110.063 94.5437 109.926 94.5881C107.048 95.4244 104.024 95.7017 101.045 95.3651C98.8914 95.1217 95.9952 94.6982 94.9896 92.5219C94.9685 92.4901 94.9568 92.4583 94.9462 92.4276C94.8806 92.3017 94.8361 92.1641 94.7917 92.0169C94.3905 90.6779 96.425 90.0766 96.8992 91.3405C96.9098 91.3617 96.9215 91.3934 96.9321 91.4241C96.9882 91.603 97.0856 91.7714 97.2041 91.9069C97.5598 92.3144 98.1557 92.5388 98.666 92.6796C99.751 93.0024 100.907 93.1549 102.03 93.2332C103.8 93.3549 105.556 93.2554 107.276 92.9336C107.287 92.9336 107.287 92.9336 107.287 92.9336C107.941 92.8077 108.585 92.6605 109.228 92.4816C109.26 92.4711 109.302 92.4594 109.334 92.4478C110.525 92.0921 111.13 93.6503 110.388 94.3383Z" fill="#0a2640"/>
<path d="M110.42 94.349C110.379 94.3818 110.336 94.4029 110.294 94.4146L110.283 94.4252C110.168 94.4696 110.041 94.4919 109.893 94.494C109.289 94.5025 108.935 94.1161 108.843 93.6736C108.731 93.2417 108.861 92.7421 109.227 92.4827C109.384 92.3536 109.605 92.2763 109.859 92.2721C111.088 92.253 111.282 93.8811 110.42 94.349Z" fill="#0a2640"/>
<path d="M128.565 106.404C128.206 106.451 127.854 106.34 127.628 106.047C127.541 105.932 127.475 105.795 127.431 105.627C126.788 102.969 124.344 101.66 121.907 100.786C121.301 100.562 120.705 100.37 120.131 100.188C119.961 100.137 119.801 100.087 119.632 100.026C116.632 99.0648 113.576 97.8707 111.841 95.0698C111.787 94.9756 111.742 94.8909 111.72 94.7967H111.709C111.365 93.7011 113.057 92.8289 113.761 93.9509C114.086 94.4749 114.474 94.9248 114.903 95.3101C116.931 97.1541 119.978 97.7331 122.49 98.6286C124.118 99.2077 125.771 100.009 127.089 101.133C128.053 101.945 128.83 102.939 129.293 104.15C129.403 104.435 129.492 104.729 129.57 105.035C129.762 105.803 129.178 106.341 128.565 106.404Z" fill="#0a2640"/>
<path d="M121.532 67.8641C121.263 66.9188 120.994 65.9735 120.726 65.0272C120.567 64.4672 119.93 64.0671 119.356 64.2534C118.786 64.4386 118.413 65.025 118.583 65.6231C118.851 66.5684 119.119 67.5137 119.388 68.46C119.547 69.02 120.184 69.4201 120.758 69.2338C121.328 69.0475 121.701 68.4621 121.532 67.8641Z" fill="#0a2640"/>
<path d="M122.736 72.5016C122.362 71.117 120.22 71.7151 120.594 73.0975C123.495 83.8386 125.946 94.6961 127.937 105.644C128.193 107.055 130.335 106.445 130.08 105.048C128.088 94.1002 125.639 83.2427 122.736 72.5016Z" fill="#0a2640"/>
<path d="M130.017 105.165C129.999 105.409 129.97 105.632 129.932 105.854V105.865C129.55 107.987 128.082 109.597 126.386 110.935C124.69 112.263 122.411 113.493 121.735 115.683C121.735 115.693 121.724 115.715 121.715 115.725C121.328 116.831 119.433 116.733 119.541 115.439C119.549 115.334 119.559 115.228 119.568 115.122C119.96 110.098 119.981 105.058 119.631 100.025C119.616 99.7602 119.591 99.4967 119.577 99.232C119.471 97.804 121.694 97.7818 121.8 99.1992C121.839 99.7274 121.879 100.257 121.907 100.786C122.13 104.392 122.152 107.991 122.004 111.594C122.589 111.056 123.216 110.538 123.866 110.052C125.259 109.026 127.083 107.792 127.628 106.048C127.719 105.772 127.768 105.495 127.785 105.199C127.794 105.125 127.804 105.051 127.813 104.987V104.977C127.993 104.286 128.72 104.01 129.293 104.15C129.719 104.259 130.051 104.593 130.017 105.165Z" fill="#0a2640"/>
<path d="M133.578 126.91C133.363 126.67 133.126 126.429 132.879 126.211C130.992 124.545 128.627 123.585 126.574 122.154C124.317 120.578 122.632 118.317 121.715 115.725C121.671 115.62 121.627 115.515 121.593 115.399C121.261 114.408 120.002 114.47 119.567 115.122C119.39 115.346 119.331 115.644 119.453 116.003C120.217 118.321 121.455 120.429 123.176 122.183C124.498 123.53 126.078 124.491 127.691 125.43C129.066 130.364 130.104 135.377 130.719 140.46C130.742 140.619 130.755 140.766 130.778 140.925C130.899 141.95 132.305 142.512 132.871 141.445C132.881 141.424 132.892 141.413 132.902 141.392C134.271 138.789 135.628 136.079 135.753 133.081L135.751 132.954C135.762 132.954 135.762 132.944 135.751 132.933C135.815 130.677 135.063 128.561 133.578 126.91ZM132.491 137.174C131.975 133.794 131.28 130.448 130.437 127.136C132.075 128.34 133.346 129.846 133.517 132.067C133.649 133.854 133.177 135.544 132.491 137.174Z" fill="#0a2640"/>
<path d="M154.224 150.722C153.977 149.825 153.354 149.168 152.585 148.693C152.158 148.424 151.689 148.218 151.21 148.067C149.497 147.51 147.561 147.581 145.782 147.555C143.78 147.51 141.748 147.529 139.763 147.146C136.79 146.554 133.353 144.658 132.903 141.393C132.869 141.255 132.856 141.119 132.843 140.981C132.762 139.765 131.14 139.599 130.719 140.462C130.647 140.612 130.608 140.803 130.621 141.014C130.817 144.24 133.057 146.769 135.873 148.178C137.878 149.175 140.053 149.514 142.246 149.661C142.258 149.725 142.238 149.788 142.26 149.862C143.206 153.712 143.699 157.644 143.746 161.612C143.752 161.962 143.925 162.245 144.182 162.442C144.697 162.837 145.523 162.835 145.84 162.132C145.952 161.876 146.076 161.621 146.21 161.365C146.888 159.999 147.759 158.737 148.822 157.62C150.032 156.364 151.533 155.548 152.84 154.407C153.457 153.868 153.955 153.194 154.177 152.449C154.188 152.449 154.188 152.439 154.188 152.439C154.358 151.895 154.392 151.322 154.224 150.722ZM150.516 153.392C148.672 154.668 147.084 156.163 145.787 157.907C145.567 155.158 145.135 152.434 144.502 149.743C145.211 149.764 145.911 149.775 146.61 149.786C148.135 149.827 150.028 149.714 151.395 150.551C152.923 151.503 151.501 152.71 150.516 153.392Z" fill="#0a2640"/>
<path d="M174.492 188.312C174.492 188.323 174.492 188.323 174.481 188.323C174.18 188.666 173.705 188.853 173.183 188.617C173.162 188.617 173.152 188.606 173.131 188.597C173.013 188.535 172.896 188.473 172.778 188.412C171.669 187.845 170.559 187.259 169.491 186.608C168.754 186.163 168.048 185.687 167.385 185.167C166.131 184.19 165.014 183.064 164.136 181.69C163.226 180.274 162.705 178.683 162.584 177.001C162.503 175.785 162.539 174.651 162.27 173.608C162.235 173.429 162.18 173.238 162.114 173.07C161.883 172.47 161.526 171.914 160.967 171.383C158.122 168.725 153.828 169 150.328 167.856C147.659 166.984 145.017 165.192 144.182 162.441C144.083 162.146 144.014 161.829 143.968 161.502C143.767 160.108 145.907 159.494 146.108 160.909C146.131 161.068 146.155 161.215 146.21 161.363C146.991 164.792 150.87 165.857 153.96 166.436C156.837 166.997 159.905 167.544 162.178 169.491C162.392 169.668 162.596 169.855 162.79 170.065C163.488 170.785 164.009 171.603 164.329 172.52C164.494 172.941 164.595 173.373 164.665 173.827C164.971 175.897 164.619 177.872 165.612 179.815C167.083 182.673 169.883 184.4 172.677 185.851C173.169 186.119 173.659 186.365 174.15 186.613C174.171 186.624 174.182 186.633 174.203 186.644C174.555 186.829 174.729 187.113 174.765 187.408C174.812 187.725 174.69 188.055 174.492 188.312Z" fill="#0a2640"/>
<path d="M135.273 81.9078C134.671 81.9428 134.169 82.4149 134.177 83.0363L134.239 87.1699C134.247 87.7521 134.767 88.2994 135.367 88.2655C135.968 88.2306 136.472 87.7584 136.463 87.1371L136.401 83.0034C136.393 82.4202 135.873 81.8729 135.273 81.9078Z" fill="#0a2640"/>
<path d="M133.82 91.9672C133.728 105.584 133.635 119.201 133.543 132.819C133.533 134.253 135.756 134.218 135.767 132.786C135.859 119.169 135.951 105.552 136.044 91.9344C136.053 90.5011 133.83 90.536 133.82 91.9672Z" fill="#0a2640"/>
<path d="M153.903 102.059L152.498 151.547C152.458 152.98 154.681 152.943 154.722 151.514L156.127 102.027C156.167 100.593 153.943 100.63 153.903 102.059Z" fill="#0a2640"/>
<path d="M165.135 130.493C165.138 129.912 164.768 129.314 164.132 129.282C163.574 129.253 162.924 129.664 162.921 130.284C162.912 131.88 162.903 133.475 162.894 135.071C162.891 135.652 163.261 136.25 163.897 136.282C164.455 136.311 165.105 135.9 165.108 135.28C165.117 133.683 165.126 132.088 165.135 130.493Z" fill="#0a2640"/>
<path d="M164.982 140.039C164.761 150.862 164.539 161.695 164.329 172.517C164.321 172.74 164.324 172.962 164.317 173.184C164.303 174.38 162.779 174.435 162.27 173.607C162.172 173.459 162.116 173.281 162.114 173.069C162.104 173.037 162.103 173.016 162.103 172.984C162.128 171.82 162.153 170.654 162.178 169.49C162.37 159.599 162.574 149.708 162.766 139.828C162.786 138.389 165.003 138.61 164.982 140.039Z" fill="#0a2640"/>
<path d="M174.18 128.517C174.248 127.085 172.024 127.125 171.956 128.55C171.01 148.157 171.287 167.81 172.785 187.383C172.894 188.805 175.118 188.78 175.009 187.35C173.512 167.777 173.234 148.124 174.18 128.517Z" fill="#0a2640"/>
<path d="M174.006 115.564C173.378 115.6 172.934 116.071 172.91 116.693C172.862 117.987 172.813 119.282 172.763 120.577C172.741 121.16 173.314 121.705 173.892 121.672C174.519 121.636 174.964 121.166 174.987 120.544C175.036 119.249 175.085 117.955 175.134 116.66C175.156 116.077 174.584 115.53 174.006 115.564Z" fill="#0a2640"/>
<path d="M173.382 194.151C171.704 195.922 169.297 197.09 168.325 199.434C167.895 200.446 166.142 199.995 166.231 198.914C166.618 194.335 166.995 189.745 167.383 185.166C167.391 185.028 167.41 184.891 167.419 184.753C167.463 184.149 167.858 183.635 168.513 183.626C169.064 183.617 169.685 184.128 169.641 184.72C169.587 185.346 169.533 185.982 169.488 186.607C169.234 189.501 168.992 192.384 168.759 195.288C169.417 194.696 170.107 194.124 170.776 193.543C171.843 192.638 173.145 191.254 173.167 189.781C173.173 189.517 173.138 189.263 173.039 189C172.984 188.821 172.906 188.632 172.797 188.453C172.787 188.442 172.776 188.421 172.775 188.41C172.558 188.033 172.595 187.672 172.781 187.394V187.384C173.029 186.978 173.545 186.726 174.023 186.836C174.289 186.885 174.545 187.041 174.718 187.334C174.729 187.355 174.751 187.387 174.762 187.407C174.838 187.533 174.903 187.648 174.958 187.774V187.785C175.166 188.247 175.289 188.722 175.339 189.198C175.526 190.985 174.633 192.83 173.382 194.151Z" fill="#0a2640"/>
<path d="M215.089 137.986C215.006 138.072 214.922 138.158 214.839 138.254C213.559 139.671 212.917 141.406 212.446 143.244C212.336 143.669 212.236 144.094 212.147 144.529C211.682 146.675 211.312 148.882 210.377 150.791C208.137 155.387 202.938 156.797 198.56 158.556C194.529 160.173 190.312 162.744 189.687 167.093C189.668 167.22 189.649 167.359 189.641 167.497C189.596 168.048 189.605 168.63 189.677 169.243C189.956 171.663 190.479 174.069 189.071 176.26C188.025 177.885 186.347 178.936 184.699 179.861C182.652 181.003 180.699 182.1 179.019 183.767C177.455 185.346 176.243 187.174 175.341 189.199C175.249 189.412 175.157 189.626 175.064 189.849C174.676 190.807 173.55 190.517 173.169 189.781C173.038 189.55 172.981 189.286 173.04 189C173.061 188.936 173.081 188.861 173.111 188.787C173.132 188.734 173.162 188.67 173.183 188.617C173.234 188.499 173.275 188.383 173.337 188.265C173.541 187.775 173.768 187.306 174.025 186.836C174.066 186.761 174.108 186.687 174.149 186.612C174.365 186.196 174.613 185.8 174.861 185.405C175.648 184.197 176.553 183.072 177.586 182.062C179.401 180.288 181.533 179.093 183.738 177.854C185.67 176.766 187.705 175.444 187.827 173.009C187.953 170.805 187.203 168.73 187.467 166.556V166.545C187.515 166.173 187.584 165.802 187.694 165.43C188.117 164.006 188.819 162.788 189.715 161.727C191.805 159.229 194.947 157.616 197.958 156.406C200.41 155.428 202.992 154.628 205.236 153.207C207.376 151.863 208.544 149.941 209.229 147.57C209.622 146.208 209.897 144.786 210.216 143.384C210.714 141.27 211.329 139.196 212.637 137.452C212.885 137.098 213.167 136.766 213.49 136.444C213.625 136.304 213.772 136.218 213.919 136.173C214.888 135.83 215.966 137.116 215.089 137.986Z" fill="#0a2640"/>
<path d="M212.636 137.451C212.579 139.389 212.523 141.317 212.446 143.244C212.439 143.445 212.431 143.636 212.423 143.837C212.406 144.123 212.314 144.358 212.148 144.529C211.554 145.215 210.154 145.014 210.201 143.87C210.209 143.711 210.217 143.542 210.215 143.383C210.798 128.394 210.862 113.392 210.439 98.3968C210.397 96.9678 212.62 96.9349 212.662 98.364C213.035 111.392 213.026 124.435 212.636 137.451Z" fill="#0a2640"/>
<path d="M189.731 157.83C189.729 159.121 189.716 160.425 189.714 161.727C189.698 163.516 189.693 165.306 189.687 167.094L189.688 167.19C189.689 167.296 189.67 167.401 189.64 167.498C189.338 168.613 187.453 168.536 187.465 167.223C187.462 167 187.47 166.778 187.466 166.556V166.545C187.476 163.645 187.487 160.754 187.508 157.863C187.518 156.423 189.741 156.39 189.731 157.83Z" fill="#0a2640"/>
<path d="M187.586 100.332C187.524 98.9028 185.3 98.9314 185.362 100.365C185.93 113.308 187.206 139.08 187.774 152.023C187.836 153.452 190.06 153.423 189.998 151.99C189.43 139.047 188.154 113.275 187.586 100.332Z" fill="#0a2640"/>
<path d="M162.779 40.6467C159.999 39.4907 157.665 42.0916 157.012 44.7718C156.625 46.3618 156.527 48.0978 156.493 49.7343C156.457 51.4502 156.601 53.2169 157.158 54.8386C157.982 57.2405 160.504 60.8565 163.267 59.1035C167.979 56.1121 168.104 42.8622 162.779 40.6467Z" fill="#0a2640"/>
<path d="M183.584 60.0954C185.93 60.2171 187.619 58.5065 188.377 56.7789C190.183 52.6633 190.231 48.0057 188.774 43.8837C188.188 42.2282 187.348 40.1333 185.34 39.3881C183.245 38.6111 181.465 40.0274 180.624 41.5835C178.723 45.0947 176.508 59.7302 183.584 60.0954Z" fill="#0a2640"/>
<path d="M145.891 34.938C145.347 34.829 144.797 35.1306 144.658 35.6832C144.278 37.1842 144.039 38.7159 143.92 40.2604C143.879 40.7939 144.439 41.2935 144.954 41.2639C145.547 41.23 145.913 40.7992 145.958 40.2307C145.972 40.0381 145.989 39.8465 146.008 39.6538C146.017 39.5723 146.023 39.4887 146.034 39.4072C146.001 39.6443 146.039 39.368 146.042 39.3373C146.086 38.9816 146.136 38.627 146.196 38.2735C146.313 37.5664 146.461 36.8656 146.637 36.1712C146.767 35.6536 146.428 35.046 145.891 34.938Z" fill="#0a2640"/>
<path d="M156.677 13.6686C151.193 18.2584 147.329 24.6404 145.761 31.6141C145.474 32.8907 147.45 33.3861 147.739 32.1021C149.236 25.4449 152.908 19.4662 158.138 15.0881C159.143 14.2465 157.674 12.8344 156.677 13.6686Z" fill="#0a2640"/>
<path d="M175.288 71.9045C174.978 71.5563 174.4 71.5341 174.014 71.7511C173.665 71.9479 173.421 72.2761 173.293 72.6455C173.225 72.7133 173.153 72.7789 173.107 72.871C172.398 74.2842 172.68 76.1059 173.864 77.1825C174.265 77.5477 174.981 77.6101 175.361 77.1602C176.646 75.6412 176.613 73.3865 175.288 71.9045Z" fill="#0a2640"/>
<path opacity="0.7" d="M276.304 128.625C275.204 126.925 274.279 125.15 273.529 123.3C272.829 121.45 272.479 119.725 272.479 118.125C272.479 116.925 272.779 115.5 273.379 113.85C273.979 112.2 274.654 110.5 275.404 108.75L300.829 52.65C302.429 52.25 304.279 52.15 306.379 52.35C308.479 52.55 310.454 52.95 312.304 53.55C314.204 54.15 315.654 54.925 316.654 55.875L300.754 90.75C299.804 92.9 298.654 95.475 297.304 98.475C295.954 101.425 294.529 104.35 293.029 107.25C291.579 110.1 290.204 112.475 288.904 114.375L289.279 114.975C291.229 114.825 293.379 114.7 295.729 114.6C298.129 114.5 300.354 114.425 302.404 114.375C304.504 114.325 306.029 114.3 306.979 114.3H327.304C328.604 114.3 329.779 114.275 330.829 114.225C331.929 114.175 333.154 114.15 334.504 114.15H341.704C341.904 115.25 342.004 116.35 342.004 117.45C342.054 118.5 342.079 119.55 342.079 120.6C342.079 121.65 342.004 122.925 341.854 124.425C341.704 125.875 341.429 127.225 341.029 128.475H334.504C333.154 128.475 331.929 128.475 330.829 128.475C329.779 128.425 328.604 128.4 327.304 128.4H310.954C309.554 128.4 308.104 128.45 306.604 128.55C305.154 128.6 303.729 128.625 302.329 128.625H276.304ZM310.804 137.025C310.804 135.625 310.829 134.175 310.879 132.675C310.929 131.175 310.954 129.75 310.954 128.4V116.175C310.954 115.575 310.929 114.55 310.879 113.1C310.829 111.6 310.804 110.5 310.804 109.8V99.45C310.804 95.3 311.804 92.05 313.804 89.7C315.854 87.35 318.654 86.175 322.204 86.175H326.629L327.454 87V105.75C327.454 107.1 327.429 108.525 327.379 110.025C327.329 111.525 327.304 112.95 327.304 114.3V128.4C327.304 129.75 327.329 131.175 327.379 132.675C327.429 134.175 327.454 135.625 327.454 137.025V148.5C326.054 148.75 324.629 148.9 323.179 148.95C321.779 149.05 320.379 149.1 318.979 149.1C317.679 149.1 316.329 149.05 314.929 148.95C313.529 148.9 312.154 148.75 310.804 148.5V137.025Z" fill="#0a2640"/>
</svg>
